# xmcd
#
# Track frame offsets:
#	150
#	23013
#	39463
#	64877
#	88122
#	109736
#	126793
#	145864
#	167285
#	188293
#
# Disc length: 2825 seconds
#
# Revision: 0
# Processed by: cddbd v1.4PL0 Copyright (c) Steve Scherf et al.
# Submitted via: audiograbber 1.80
#
DISCID=770b070a
DTITLE=Коллекция СВ - До Свидания (1993)
DYEAR=1900
DGENRE=
TTITLE0=Молитва
TTITLE1=Скрипач
TTITLE2=День лугов
TTITLE3=Степной волк
TTITLE4=Ветер дует
TTITLE5=Стая
TTITLE6=Милый друг
TTITLE7=Роса
TTITLE8=Колыбельная
TTITLE9=Молитва
EXTD=
EXTT0=
EXTT1=
EXTT2=
EXTT3=
EXTT4=
EXTT5=
EXTT6=
EXTT7=
EXTT8=
EXTT9=
PLAYORDER=
